<svg width="30" height="30" viewBox="0 0 30 30" fill="none" xmlns="http://www.w3.org/2000/svg">
<path d="M23.0313 20.4517C22.7531 20.4517 22.4812 20.3692 22.25 20.2147C22.0187 20.0602 21.8385 19.8406 21.732 19.5836C21.6256 19.3267 21.5978 19.0439 21.652 18.7711C21.7063 18.4983 21.8402 18.2478 22.0369 18.0511C22.2336 17.8544 22.4841 17.7205 22.7569 17.6662C23.0297 17.612 23.3124 17.6398 23.5694 17.7463C23.8264 17.8527 24.046 18.0329 24.2005 18.2642C24.355 18.4955 24.4375 18.7673 24.4375 19.0455C24.4375 19.4184 24.2893 19.7761 24.0256 20.0398C23.7619 20.3036 23.4042 20.4517 23.0313 20.4517ZM23.0313 18.5767C22.9385 18.5767 22.8479 18.6042 22.7708 18.6557C22.6937 18.7072 22.6337 18.7804 22.5982 18.8661C22.5627 18.9517 22.5534 19.046 22.5715 19.1369C22.5896 19.2278 22.6342 19.3114 22.6998 19.3769C22.7654 19.4425 22.8489 19.4871 22.9398 19.5052C23.0307 19.5233 23.125 19.514 23.2106 19.4785C23.2963 19.4431 23.3695 19.383 23.421 19.3059C23.4725 19.2288 23.5 19.1382 23.5 19.0455C23.5 18.9211 23.4506 18.8019 23.3627 18.714C23.2748 18.6261 23.1556 18.5767 23.0313 18.5767Z" fill="#F5C639"/>
<path d="M7.09375 20.4517C6.81562 20.4517 6.54374 20.3692 6.31248 20.2147C6.08122 20.0602 5.90098 19.8406 5.79455 19.5836C5.68811 19.3267 5.66026 19.0439 5.71452 18.7711C5.76878 18.4983 5.90271 18.2478 6.09938 18.0511C6.29605 17.8544 6.54662 17.7205 6.8194 17.6662C7.09219 17.612 7.37494 17.6398 7.6319 17.7463C7.88886 17.8527 8.10848 18.0329 8.263 18.2642C8.41753 18.4955 8.5 18.7673 8.5 19.0455C8.5 19.4184 8.35184 19.7761 8.08812 20.0398C7.8244 20.3036 7.46671 20.4517 7.09375 20.4517ZM7.09375 18.5767C7.00104 18.5767 6.91041 18.6042 6.83333 18.6557C6.75624 18.7072 6.69616 18.7804 6.66068 18.8661C6.6252 18.9517 6.61592 19.046 6.63401 19.1369C6.65209 19.2278 6.69674 19.3114 6.76229 19.3769C6.82785 19.4425 6.91137 19.4871 7.0023 19.5052C7.09323 19.5233 7.18748 19.514 7.27313 19.4785C7.35879 19.4431 7.43199 19.383 7.4835 19.3059C7.53501 19.2288 7.5625 19.1382 7.5625 19.0455C7.5625 18.9211 7.51311 18.8019 7.42521 18.714C7.3373 18.6261 7.21807 18.5767 7.09375 18.5767Z" fill="#F5C639"/>
<path d="M21.625 13.8892H20.6875C20.5632 13.8892 20.444 13.8398 20.356 13.7519C20.2681 13.664 20.2188 13.5448 20.2188 13.4205C20.2188 13.2962 20.2681 13.1769 20.356 13.089C20.444 13.0011 20.5632 12.9517 20.6875 12.9517H21.625C21.7493 12.9517 21.8685 13.0011 21.9565 13.089C22.0444 13.1769 22.0938 13.2962 22.0938 13.4205C22.0938 13.5448 22.0444 13.664 21.9565 13.7519C21.8685 13.8398 21.7493 13.8892 21.625 13.8892Z" fill="#F5C639"/>
<path d="M10.286 10.8185C10.2449 10.8185 10.2041 10.813 10.1646 10.8021C10.1051 10.7861 10.0493 10.7586 10.0005 10.7211C9.95166 10.6837 9.91068 10.6369 9.8799 10.5836C9.84913 10.5303 9.82916 10.4714 9.82114 10.4104C9.81311 10.3493 9.81719 10.2873 9.83314 10.2278L9.95455 9.77549C9.98972 9.65891 10.0689 9.56059 10.1753 9.50135C10.2817 9.44211 10.4069 9.42659 10.5246 9.45809C10.6422 9.48958 10.7429 9.56561 10.8055 9.67009C10.868 9.77456 10.8875 9.89928 10.8597 10.0178L10.7383 10.4706C10.7117 10.5703 10.6529 10.6584 10.5711 10.7213C10.4894 10.7842 10.3891 10.8183 10.286 10.8185Z" fill="#F5C639"/>
<path d="M28.6562 17.6392H28.1875V11.5455C28.1859 10.1785 27.6421 8.8679 26.6755 7.90126C25.7089 6.93463 24.3983 6.39086 23.0312 6.38925H18.3438C18.2194 6.38925 18.1002 6.43864 18.0123 6.52654C17.9244 6.61445 17.875 6.73368 17.875 6.858V14.8267H14.9688C15.6708 14.3868 16.1813 13.6984 16.3984 12.8988L17.0969 10.2916C17.2659 9.65089 17.2382 8.97412 17.0172 8.34941C16.7962 7.7247 16.3923 7.18099 15.858 6.78909L12.6395 4.44863C12.232 4.15447 11.7415 3.99739 11.2389 4.00003L3.8125 4.068C3.50543 4.07169 3.20793 4.17542 2.96515 4.36347C2.72236 4.55153 2.54753 4.81363 2.46719 5.11003L1.24844 9.65691C1.17206 9.94201 1.18732 10.2439 1.29206 10.5199C1.3968 10.7958 1.58571 11.0318 1.83203 11.1944L1.9375 11.261V14.8267H1.46875C1.34443 14.8267 1.2252 14.8761 1.13729 14.964C1.04939 15.0519 1 15.1712 1 15.2955V18.108C1 18.2323 1.04939 18.3515 1.13729 18.4395C1.2252 18.5274 1.34443 18.5767 1.46875 18.5767H1.9375V19.0455C1.9375 19.4185 2.08566 19.7761 2.34938 20.0399C2.6131 20.3036 2.97079 20.4517 3.34375 20.4517H4.13359C4.39871 21.0126 4.81769 21.4866 5.34176 21.8185C5.86582 22.1505 6.4734 22.3267 7.09375 22.3267C7.7141 22.3267 8.32168 22.1505 8.84574 21.8185C9.36981 21.4866 9.78879 21.0126 10.0539 20.4517H20.0711C20.3362 21.0126 20.7552 21.4866 21.2793 21.8185C21.8033 22.1505 22.4109 22.3267 23.0312 22.3267C23.6516 22.3267 24.2592 22.1505 24.7832 21.8185C25.3073 21.4866 25.7263 21.0126 25.9914 20.4517H27.7188C28.0917 20.4517 28.4494 20.3036 28.7131 20.0399C28.9768 19.7761 29.125 19.4185 29.125 19.0455V18.108C29.125 17.9837 29.0756 17.8644 28.9877 17.7765C28.8998 17.6886 28.7806 17.6392 28.6562 17.6392ZM20.6875 7.32675H23.0312C24.0684 7.32826 25.0687 7.71129 25.8416 8.40285C26.6145 9.09441 27.106 10.0462 27.2223 11.0767H26.3125V10.1392C26.3125 10.0149 26.2631 9.8957 26.1752 9.80779C26.0873 9.71989 25.9681 9.6705 25.8438 9.6705C25.7194 9.6705 25.6002 9.71989 25.5123 9.80779C25.4244 9.8957 25.375 10.0149 25.375 10.1392V11.0767H21.1562C21.0319 11.0767 20.9127 11.0274 20.8248 10.9395C20.7369 10.8515 20.6875 10.7323 20.6875 10.608V7.32675ZM4.75 13.1177L7.33844 14.8267H4.75V13.1177ZM2.15641 9.89784L3.37516 5.35331C3.4016 5.25426 3.4598 5.16661 3.54082 5.10379C3.62184 5.04096 3.72123 5.00644 3.82375 5.0055L11.2487 4.93753H11.2516L10.4406 7.96378C10.4086 8.08381 10.4254 8.21166 10.4876 8.31924C10.5497 8.42683 10.652 8.50534 10.772 8.53753C10.8116 8.54844 10.8524 8.55396 10.8934 8.55394C10.9966 8.55382 11.0968 8.51967 11.1786 8.45679C11.2604 8.3939 11.3192 8.3058 11.3458 8.20613L12.1398 5.24316L15.3053 7.54659C15.6869 7.82658 15.9754 8.21491 16.1333 8.66108C16.2913 9.10725 16.3113 9.59061 16.1908 10.0483L15.4919 12.6555C15.3677 13.1119 15.109 13.5204 14.7495 13.8279C14.3901 14.1354 13.9464 14.3276 13.4762 14.3796L9.58562 14.7916L10.2583 12.2814C10.2742 12.222 10.2783 12.16 10.2703 12.0989C10.2622 12.0379 10.2423 11.979 10.2115 11.9257C10.1807 11.8724 10.1398 11.8256 10.0909 11.7881C10.0421 11.7507 9.98634 11.7232 9.92688 11.7072C9.80678 11.675 9.67882 11.6918 9.57113 11.754C9.46344 11.8161 9.38486 11.9185 9.35266 12.0386L8.6725 14.5783C8.66641 14.5741 8.65938 14.5717 8.65281 14.5675L2.35141 10.4107C2.26915 10.3565 2.20605 10.2778 2.17104 10.1858C2.13604 10.0937 2.13092 9.99297 2.15641 9.89784ZM3.8125 12.4989V12.9517H2.875V11.8797L3.8125 12.4989ZM3.8125 13.8892V14.8267H2.875V13.8892H3.8125ZM3.85 19.5142H3.34375C3.21943 19.5142 3.1002 19.4649 3.01229 19.377C2.92439 19.289 2.875 19.1698 2.875 19.0455V18.5767H3.85C3.8 18.8872 3.8 19.2037 3.85 19.5142ZM7.09375 21.3892C6.6302 21.3892 6.17706 21.2518 5.79163 20.9943C5.4062 20.7367 5.1058 20.3707 4.92841 19.9424C4.75101 19.5141 4.7046 19.0429 4.79503 18.5883C4.88547 18.1336 5.10869 17.716 5.43647 17.3882C5.76425 17.0604 6.18186 16.8372 6.63651 16.7468C7.09115 16.6563 7.5624 16.7028 7.99066 16.8802C8.41893 17.0575 8.78497 17.358 9.04251 17.7434C9.30004 18.1288 9.4375 18.5819 9.4375 19.0455C9.43676 19.6669 9.18959 20.2626 8.75021 20.702C8.31083 21.1413 7.71512 21.3885 7.09375 21.3892ZM7.09375 15.7642C6.47358 15.7651 5.86635 15.9417 5.34243 16.2735C4.81852 16.6054 4.39938 17.0789 4.13359 17.6392H1.9375V15.7642H17.875V17.6392H10.0539C9.78812 17.0789 9.36898 16.6054 8.84507 16.2735C8.32115 15.9417 7.71392 15.7651 7.09375 15.7642ZM19.7875 19.5142H10.3375C10.3875 19.2037 10.3875 18.8872 10.3375 18.5767H19.7875C19.7375 18.8872 19.7375 19.2037 19.7875 19.5142ZM23.0312 21.3892C22.5677 21.3892 22.1146 21.2518 21.7291 20.9943C21.3437 20.7367 21.0433 20.3707 20.8659 19.9424C20.6885 19.5141 20.6421 19.0429 20.7325 18.5883C20.823 18.1336 21.0462 17.716 21.374 17.3882C21.7017 17.0604 22.1194 16.8372 22.574 16.7468C23.0287 16.6563 23.4999 16.7028 23.9282 16.8802C24.3564 17.0575 24.7225 17.358 24.98 17.7434C25.2375 18.1288 25.375 18.5819 25.375 19.0455C25.3743 19.6669 25.1271 20.2626 24.6877 20.702C24.2483 21.1413 23.6526 21.3885 23.0312 21.3892ZM23.0312 15.7642C22.4111 15.7651 21.8038 15.9417 21.2799 16.2735C20.756 16.6054 20.3369 17.0789 20.0711 17.6392H18.8125V7.32675H19.75V10.608C19.75 10.981 19.8982 11.3386 20.1619 11.6024C20.4256 11.8661 20.7833 12.0142 21.1562 12.0142H27.25V12.9517H25.8438C25.4708 12.9517 25.1131 13.0999 24.8494 13.3636C24.5857 13.6274 24.4375 13.985 24.4375 14.358C24.4375 14.731 24.5857 15.0886 24.8494 15.3524C25.1131 15.6161 25.4708 15.7642 25.8438 15.7642H27.25V17.6392H25.9914C25.7256 17.0789 25.3065 16.6054 24.7826 16.2735C24.2587 15.9417 23.6514 15.7651 23.0312 15.7642ZM27.25 13.8892V14.8267H25.8438C25.7194 14.8267 25.6002 14.7774 25.5123 14.6895C25.4244 14.6015 25.375 14.4823 25.375 14.358C25.375 14.2337 25.4244 14.1144 25.5123 14.0265C25.6002 13.9386 25.7194 13.8892 25.8438 13.8892H27.25ZM28.1875 19.0455C28.1875 19.1698 28.1381 19.289 28.0502 19.377C27.9623 19.4649 27.8431 19.5142 27.7188 19.5142H26.275C26.325 19.2037 26.325 18.8872 26.275 18.5767H28.1875V19.0455Z" fill="#F5C639"/>
</svg>
