<svg width="24" height="24" viewBox="0 0 24 24" fill="none" xmlns="http://www.w3.org/2000/svg">
<path d="M2 4C1.46957 4 0.960859 4.21071 0.585786 4.58579C0.210714 4.96086 0 5.46957 0 6V17H2C2 17.7956 2.31607 18.5587 2.87868 19.1213C3.44129 19.6839 4.20435 20 5 20C5.79565 20 6.55871 19.6839 7.12132 19.1213C7.68393 18.5587 8 17.7956 8 17H14C14 17.7956 14.3161 18.5587 14.8787 19.1213C15.4413 19.6839 16.2044 20 17 20C17.7956 20 18.5587 19.6839 19.1213 19.1213C19.6839 18.5587 20 17.7956 20 17H22V12L19 8H16V4H2ZM9 6L13 10L9 14V11H3V9H9V6ZM16 9.5H18.5L20.47 12H16V9.5ZM5 15.5C5.39782 15.5 5.77936 15.658 6.06066 15.9393C6.34196 16.2206 6.5 16.6022 6.5 17C6.5 17.3978 6.34196 17.7794 6.06066 18.0607C5.77936 18.342 5.39782 18.5 5 18.5C4.60218 18.5 4.22064 18.342 3.93934 18.0607C3.65804 17.7794 3.5 17.3978 3.5 17C3.5 16.6022 3.65804 16.2206 3.93934 15.9393C4.22064 15.658 4.60218 15.5 5 15.5ZM17 15.5C17.3978 15.5 17.7794 15.658 18.0607 15.9393C18.342 16.2206 18.5 16.6022 18.5 17C18.5 17.3978 18.342 17.7794 18.0607 18.0607C17.7794 18.342 17.3978 18.5 17 18.5C16.6022 18.5 16.2206 18.342 15.9393 18.0607C15.658 17.7794 15.5 17.3978 15.5 17C15.5 16.6022 15.658 16.2206 15.9393 15.9393C16.2206 15.658 16.6022 15.5 17 15.5Z" fill="black"/>
</svg>
